# xmcd
#
# Track frame offsets:
#	150
#	15270
#	35693
#	48663
#	70688
#	84564
#	109161
#	124509
#	140076
#	154109
#	175394
#	195365
#	207479
#	221242
#	236916
#	265217
#	276952
#	300210
#	328907
#
# Disc length: 4489 seconds
#
# Revision: 1
# Processed by: cddbd v1.5.2PL0 Copyright (c) Steve Scherf et al.
# Submitted via: audiograbber 1.83.01
#
DISCID=1a118713
DTITLE=Sadie Jones - Kleine Kriege
DYEAR=2010
DGENRE=Roman
TTITLE0=401
TTITLE1=402
TTITLE2=403
TTITLE3=404
TTITLE4=405
TTITLE5=406
TTITLE6=407
TTITLE7=408
TTITLE8=409
TTITLE9=410
TTITLE10=411
TTITLE11=412
TTITLE12=413
TTITLE13=414
TTITLE14=415
TTITLE15=416
TTITLE16=417
TTITLE17=418
TTITLE18=419
EXTD=Gelesen von Regina Lemnitz
EXTT0=
EXTT1=
EXTT2=
EXTT3=
EXTT4=
EXTT5=
EXTT6=
EXTT7=
EXTT8=
EXTT9=
EXTT10=
EXTT11=
EXTT12=
EXTT13=
EXTT14=
EXTT15=
EXTT16=
EXTT17=
EXTT18=
PLAYORDER=
